<?xml version="1.0" encoding="UTF-8"?> <svg xmlns="http://www.w3.org/2000/svg" xmlns:xlink="http://www.w3.org/1999/xlink" width="612px" height="305px" viewBox="0 0 612 305" version="1.1"><title>Group 3 Copy 3</title><g id="Page-1" stroke="none" stroke-width="1" fill="none" fill-rule="evenodd"><g id="Group-3-Copy-3" fill="#1E1E1E"><g id="Group"><g id="Group-10" transform="translate(152.131408, 0.000000)"><path d="M402.198308,98.4834898 L360.324669,98.4834898 L360.324669,210.214931 L402.198308,210.214931 C433.347359,210.214931 458.605666,185.20035 458.605666,154.351867 C458.605666,123.492758 433.347359,98.4834898 402.198308,98.4834898" id="Fill-4"></path><path d="M325.482905,38.0909162 C325.482905,17.2153238 308.395456,0.303384151 287.337925,0.303384151 C266.264299,0.303384151 249.18758,17.2153238 249.18758,38.0909162 C249.18758,58.9505691 266.264299,75.8678219 287.337925,75.8678219 C308.395456,75.8678219 325.482905,58.9505691 325.482905,38.0909162" id="Fill-6"></path><path d="M76.9514614,38.0909162 C76.9514614,17.2153238 59.8586476,0.303384151 38.7957515,0.303384151 C17.7328554,0.303384151 0.650771598,17.2153238 0.650771598,38.0909162 C0.650771598,58.9505691 17.7328554,75.8678219 38.7957515,75.8678219 C59.8586476,75.8678219 76.9514614,58.9505691 76.9514614,38.0909162" id="Fill-8"></path></g><polygon id="Fill-11" points="0 98.44736 65.1737294 210.237247 130.363554 98.44736"></polygon><polygon id="Fill-12" points="250.977873 98.44736 316.151602 210.237247 381.336062 98.44736"></polygon><polygon id="Fill-13" points="158.33332 210.217057 223.507049 210.217057 223.507049 98.4218566 158.33332 98.4218566"></polygon><polygon id="Fill-14" points="406.876567 210.217057 472.050296 210.217057 472.050296 98.4218566 406.876567 98.4218566"></polygon></g><g id="Group-2" transform="translate(0.000000, 241.920000)"><polygon id="Fill-15" points="27.3871581 4.81503467 33.1044147 4.81503467 33.1044147 46.8032213 27.3871581 46.8032213 27.3871581 27.842328 5.67443071 27.842328 5.67443071 46.8032213 0 46.8032213 0 4.81503467 5.67443071 4.81503467 5.67443071 23.478768 27.3871581 23.478768"></polygon><g id="Group-28" transform="translate(39.382155, 0.000000)"><path d="M5.51490427,42.6210853 C2.3832609,39.4670187 0.820115835,35.327632 0.820115835,30.2029253 C0.820115835,25.0730053 2.44749974,20.923192 5.72903373,17.7534853 C9.01056772,14.588992 13.1165001,12.9989253 18.046831,12.9989253 C22.9878683,12.9989253 27.0830942,14.588992 30.3646282,17.7534853 C33.6515154,20.923192 35.2788993,25.0625787 35.2788993,30.1768587 C35.2788993,35.280712 33.5658636,39.4148853 30.1504987,42.5950187 C26.7244274,45.7647253 22.5596094,47.3495787 17.6132188,47.3495787 C12.6775347,47.3495787 8.65190087,45.7699387 5.51490427,42.6210853 M17.6132188,42.803552 C20.8037478,42.803552 23.5767243,41.6826853 25.9160887,39.440952 C28.2608063,37.204432 29.433165,34.1024987 29.433165,30.1403653 C29.433165,26.1886587 28.3250451,23.097152 26.0713325,20.8658453 C23.8336796,18.6606053 21.1088823,17.5397387 17.8915871,17.5397387 C14.674292,17.5397387 11.9976737,18.6606053 9.84031938,20.8658453 C7.67761182,23.097152 6.60696452,26.193872 6.60696452,30.1768587 C6.60696452,34.1494187 7.63478593,37.251352 9.7118417,39.4670187 C11.7996039,41.693112 14.4173366,42.803552 17.6132188,42.803552" id="Fill-16"></path><path d="M41.1353401,22.934496 C41.1353401,20.1453627 42.3291118,17.7941493 44.7113021,15.880856 C47.0988456,13.9519227 50.1823098,12.9978827 53.9724013,12.9978827 C57.7731992,12.9978827 60.7495987,13.9362827 62.906953,15.8130827 C65.0536009,17.7003093 66.2527259,20.2652693 66.4561488,23.544456 L60.5997081,23.544456 C60.530116,21.6780827 59.8770212,20.1870693 58.6725429,19.0662027 C57.4680647,17.9244827 55.7978549,17.3562293 53.6619136,17.3562293 C51.5366787,17.3562293 49.8557624,17.851496 48.6298712,18.8420293 C47.4093333,19.837776 46.7937111,21.1098293 46.7937111,22.6581893 C46.7937111,24.216976 47.4789254,25.4160427 48.8761201,26.2606027 C50.2572551,27.1155893 51.9488779,27.7307627 53.9135157,28.1061227 C55.8835067,28.502336 57.858851,28.940256 59.828842,29.4511627 C61.7934798,29.9464293 63.4743961,30.9004693 64.8662376,32.287216 C66.2527259,33.6896027 66.9593531,35.6706693 66.9593531,38.2356293 C66.9593531,40.795376 65.7655813,42.9589093 63.3780378,44.705376 C60.9797879,46.472696 57.8802639,47.348536 54.0741128,47.348536 C50.2519019,47.348536 47.1952038,46.425776 44.8986654,44.564616 C42.5914204,42.7086693 41.3441163,40.1332827 41.1353401,36.8645227 L46.9810744,36.8645227 C47.0667262,38.730896 47.7305275,40.2114827 48.9992445,41.3219227 C50.2572551,42.4427893 52.0131167,42.9797627 54.2240034,42.9797627 C56.4509498,42.9797627 58.1853984,42.5209893 59.4541155,41.5982293 C60.7121261,40.670256 61.3598677,39.4868293 61.3598677,38.058376 C61.3598677,36.6142827 60.8566634,35.4725627 59.8609614,34.6227893 C58.8652595,33.7834427 57.6233086,33.1891227 56.1297556,32.8711093 C54.6308494,32.5426693 52.9981122,32.1673093 51.2368974,31.7137493 C49.4703294,31.2758293 47.8429455,30.801416 46.3547457,30.2957227 C44.8611927,29.784816 43.6138886,28.908976 42.6181866,27.657776 C41.6278378,26.406576 41.1353401,24.8321493 41.1353401,22.934496" id="Fill-18"></path><path d="M93.3893524,12.99684 C98.0841409,12.99684 101.959884,14.56084 105.059408,17.6992667 C108.142872,20.8220533 109.695311,24.9249467 109.695311,29.9923067 C109.695311,35.06488 108.137519,39.2199067 105.037995,42.4730267 C101.911705,45.7261467 98.0306085,47.3474933 93.3893524,47.3474933 C90.4932515,47.3474933 87.9451109,46.6749733 85.7663436,45.3142933 C83.5982828,43.9692533 81.9227198,42.2019333 80.7610675,40.0123333 L80.7610675,62.56 L75.09199,62.56 L75.09199,13.5390267 L80.7610675,13.5390267 L80.7610675,20.2016667 C81.9227198,18.0694133 83.5982828,16.32816 85.7663436,14.99876 C87.9451109,13.6641467 90.4932515,12.99684 93.3893524,12.99684 M92.3026454,42.619 C95.4771147,42.619 98.1912056,41.4720667 100.450271,39.1417067 C102.71469,36.8113467 103.849577,33.7615467 103.849577,29.9923067 C103.849577,26.21264 102.71469,23.2358267 100.450271,21.05144 C98.1912056,18.87748 95.4771147,17.7878933 92.3026454,17.7878933 C89.1335294,17.7878933 86.4140852,18.90876 84.1603727,21.17656 C81.8852471,23.4391467 80.7610675,26.44724 80.7610675,30.1799867 C80.7610675,33.9127333 81.8852471,36.9104 84.1603727,39.2042667 C86.4140852,41.4877067 89.1335294,42.619 92.3026454,42.619" id="Fill-20"></path><path d="M122.377664,7.11359333 C121.633564,7.83824667 120.728867,8.21360667 119.64216,8.21360667 C118.571512,8.21360667 117.666815,7.83824667 116.933422,7.11359333 C116.216088,6.39936667 115.857421,5.49746 115.857421,4.45479333 C115.857421,3.39648667 116.226795,2.51543333 116.976248,1.79078 C117.714995,1.0557 118.619691,0.69598 119.684986,0.69598 C120.739573,0.69598 121.633564,1.0557 122.377664,1.79078 C123.137823,2.51543333 123.501843,3.39648667 123.501843,4.45479333 C123.501843,5.49746 123.137823,6.39936667 122.377664,7.11359333 L122.377664,7.11359333 Z M116.794238,46.8027 L122.452609,46.8027 L122.452609,13.5416333 L116.794238,13.5416333 L116.794238,46.8027 Z" id="Fill-22"></path><path d="M142.976918,42.32184 L147.650293,42.32184 L147.650293,46.8000933 L141.911624,46.8000933 C135.985591,46.8000933 133.025251,43.9588267 133.025251,38.2606533 L133.025251,18.0224933 L128.608831,18.0224933 L128.608831,13.5390267 L133.025251,13.5390267 L133.025251,5.29153333 L138.753214,5.29153333 L138.753214,13.5390267 L147.580701,13.5390267 L147.580701,18.0224933 L138.753214,18.0224933 L138.753214,38.2606533 C138.753214,39.7516667 139.063702,40.8099733 139.673971,41.41472 C140.300299,42.0142533 141.397713,42.32184 142.976918,42.32184" id="Fill-24"></path><path d="M156.292558,42.4714627 C153.193034,39.2183427 151.635242,35.063316 151.635242,29.9907427 C151.635242,24.928596 153.160915,20.8257027 156.260439,17.6977027 C159.349256,14.559276 163.241059,12.995276 167.919788,12.995276 C170.826595,12.995276 173.364029,13.667796 175.542797,15.0024093 C177.726917,16.326596 179.365008,18.0678493 180.494541,20.2001027 L180.494541,13.5374627 L186.21715,13.5374627 L186.21715,46.8037427 L180.494541,46.8037427 L180.494541,40.0159827 C179.365008,42.2003693 177.726917,43.9676893 175.542797,45.3127293 C173.364029,46.6786227 170.826595,47.3511427 167.919788,47.3511427 C163.289238,47.3511427 159.397435,45.7245827 156.292558,42.4714627 M177.100589,39.2339827 C179.365008,36.9661827 180.494541,33.9580893 180.494541,30.2044893 C180.494541,26.4508893 179.365008,23.4375827 177.100589,21.1802093 C174.846876,18.9124093 172.127432,17.7863293 168.952963,17.7863293 C165.778493,17.7863293 163.069756,18.875916 160.799983,21.049876 C158.540918,23.2342627 157.411385,26.2058627 157.411385,29.9594627 C157.411385,33.7130627 158.551624,36.768076 160.832103,39.1036493 C163.112582,41.4496493 165.826672,42.6226493 168.990435,42.6226493 C172.132785,42.6226493 174.846876,41.4965693 177.100589,39.2339827" id="Fill-26"></path></g><polygon id="Fill-29" points="234.935885 46.8000933 240.594256 46.8000933 240.594256 1.97064 234.935885 1.97064"></polygon><g id="Group-34" transform="translate(248.158380, 0.000000)"><path d="M7.36658878,7.11359333 C6.61178243,7.83824667 5.70708546,8.21360667 4.62037844,8.21360667 C3.5443779,8.21360667 2.64503417,7.83824667 1.92234724,7.11359333 C1.1996603,6.39936667 0.824933748,5.49746 0.824933748,4.45479333 C0.824933748,3.39648667 1.1996603,2.51543333 1.94911342,1.79078 C2.69321329,1.0557 3.60861674,0.69598 4.66320433,0.69598 C5.71779193,0.69598 6.61178243,1.0557 7.36658878,1.79078 C8.11068866,2.51543333 8.48006198,3.39648667 8.48006198,4.45479333 C8.48006198,5.49746 8.11068866,6.39936667 7.36658878,7.11359333 L7.36658878,7.11359333 Z M1.76175014,46.8027 L7.43082762,46.8027 L7.43082762,13.5416333 L1.76175014,13.5416333 L1.76175014,46.8027 Z" id="Fill-30"></path><path d="M27.9620957,42.32184 L32.608705,42.32184 L32.608705,46.8000933 L26.8860951,46.8000933 C20.9600623,46.8000933 17.9997225,43.9588267 17.9997225,38.2606533 L17.9997225,18.0224933 L13.5779491,18.0224933 L13.5779491,13.5390267 L17.9997225,13.5390267 L17.9997225,5.29153333 L23.7223323,5.29153333 L23.7223323,13.5390267 L32.5605258,13.5390267 L32.5605258,18.0224933 L23.7223323,18.0224933 L23.7223323,38.2606533 C23.7223323,39.7516667 24.0274668,40.8099733 24.6537955,41.41472 C25.2747709,42.0142533 26.3668312,42.32184 27.9620957,42.32184" id="Fill-32"></path></g><polygon id="Fill-35" points="296.565556 46.2625987 283.070047 13.5385053 289.306567 13.5385053 299.761438 40.4393053 310.38226 13.5385053 316.227994 13.5385053 295.634093 62.3717987 289.799065 62.3717987"></polygon><g id="Group-40" transform="translate(339.163400, 3.910000)"><path d="M5.74402279,12.117872 C5.74402279,13.6453787 6.19369466,14.9226453 7.06091897,15.934032 C7.91743682,16.9402053 9.0576762,17.685712 10.4173983,18.1757653 C11.7824736,18.6501787 13.3134992,19.0880987 14.9944155,19.4478187 C16.6753318,19.812752 18.356248,20.219392 20.0371643,20.6833787 C21.7073741,21.1525787 23.243753,21.7468987 24.6141815,22.471552 C25.9739036,23.206632 27.0766703,24.2910053 27.9706608,25.7507387 C28.8325319,27.2000453 29.2607908,29.0038587 29.2607908,31.1413253 C29.2607908,34.4152987 27.9813673,37.2617787 25.4064605,39.6807653 C22.8422602,42.1101787 19.3787162,43.319672 14.9944155,43.319672 C10.615468,43.319672 7.06091897,42.334352 4.32541511,40.379352 C1.59526448,38.424352 0.23018917,35.7603387 0.23018917,32.418592 L6.24722702,32.418592 C6.41317735,34.3162453 7.18404341,35.843752 8.57588491,37.0115387 C9.98378611,38.189752 12.0554886,38.7632187 14.7749328,38.7632187 C17.5157899,38.7632187 19.6945572,38.0906987 21.3005281,36.719592 C22.9332653,35.3484853 23.7255443,33.7427787 23.7255443,31.8920453 C23.7255443,30.0517387 23.2919321,28.649352 22.4247078,27.6536053 C21.546777,26.6682853 20.4440103,25.9227787 19.0682285,25.4483653 C17.7031532,24.9530987 16.1774808,24.5464587 14.4965645,24.1971653 C12.8156482,23.8687253 11.134732,23.441232 9.45916894,22.9616053 C7.77289943,22.471552 6.24722702,21.8563787 4.88215171,21.1160853 C3.51172316,20.3705787 2.38219025,19.2549253 1.52567241,17.7743387 C0.658448092,16.309392 0.23018917,14.4742987 0.23018917,12.3003387 C0.23018917,8.74484533 1.51496594,5.88272533 4.11128565,3.719192 C6.67548594,1.56608533 10.0854976,0.486925333 14.2449624,0.486925333 C18.4044272,0.486925333 21.7180806,1.420112 24.1966291,3.296912 C26.6591179,5.17892533 28.0937853,7.77516533 28.4524521,11.0908453 L22.1731057,11.0908453 C22.0071553,9.42257867 21.1988166,8.00976533 19.7855622,6.85240533 C18.356248,5.67940533 16.4076699,5.08508533 13.988007,5.08508533 C11.5683441,5.08508533 9.57694014,5.68461867 8.04056126,6.87325867 C6.51488885,8.07232533 5.74402279,9.81357867 5.74402279,12.117872" id="Fill-36"></path><path d="M40.1294669,38.7110853 C36.9924703,35.5570187 35.4186188,31.417632 35.4186188,26.2929253 C35.4186188,21.1630053 37.0674157,17.013192 40.3489496,13.8434853 C43.6090707,10.678992 47.736416,9.08892533 52.6667469,9.08892533 C57.5970777,9.08892533 61.6923037,10.678992 64.9845441,13.8434853 C68.2607249,17.013192 69.9041685,21.1525787 69.9041685,26.2668587 C69.9041685,31.370712 68.1750731,35.5048853 64.7704147,38.6850187 C61.3443433,41.8547253 57.1634656,43.4395787 52.2331347,43.4395787 C47.2974506,43.4395787 43.2504038,41.8599387 40.1294669,38.7110853 M52.2331347,38.893552 C55.4183105,38.893552 58.191287,37.7726853 60.5252981,35.530952 C62.8807222,33.294432 64.053081,30.1924987 64.053081,26.2303653 C64.053081,22.2786587 62.9235481,19.187152 60.6912484,16.9558453 C58.4428891,14.7506053 55.7180917,13.6297387 52.4954433,13.6297387 C49.2995611,13.6297387 46.6015299,14.7506053 44.4495288,16.9558453 C42.302881,19.187152 41.2322337,22.283872 41.2322337,26.2668587 C41.2322337,30.2394187 42.2386421,33.341352 44.3210511,35.5570187 C46.3981069,37.783112 49.026546,38.893552 52.2331347,38.893552" id="Fill-38"></path></g><polygon id="Fill-41" points="416.164355 46.8000933 421.817372 46.8000933 421.817372 1.97064 416.164355 1.97064"></polygon><g id="Group-54" transform="translate(430.168421, 0.000000)"><path d="M25.048329,13.539548 L30.7120533,13.539548 L30.7120533,46.8006147 L25.048329,46.8006147 L25.048329,41.4778013 C22.7678503,45.3930147 19.0687638,47.3480147 13.9189503,47.3480147 C10.1288588,47.3480147 6.98115575,46.1280947 4.45442811,43.6830413 C1.93305371,41.2327747 0.669689889,37.7763347 0.669689889,33.2876547 L0.669689889,13.539548 L6.25311558,13.539548 L6.25311558,32.3805347 C6.25311558,35.6910013 7.09357372,38.235108 8.79590293,39.9920013 C10.450053,41.7488947 12.7519447,42.6195213 15.6533989,42.6195213 C18.5655596,42.6195213 20.8620981,41.7488947 22.5376611,39.9920013 C24.2132241,38.235108 25.048329,35.6910013 25.048329,32.3805347 L25.048329,13.539548 Z" id="Fill-42"></path><path d="M51.259381,42.32184 L55.9059903,42.32184 L55.9059903,46.8000933 L50.1780272,46.8000933 C44.2627009,46.8000933 41.2863014,43.9588267 41.2863014,38.2606533 L41.2863014,18.0224933 L36.864528,18.0224933 L36.864528,13.5390267 L41.2863014,13.5390267 L41.2863014,5.29153333 L47.0089112,5.29153333 L47.0089112,13.5390267 L55.8363982,13.5390267 L55.8363982,18.0224933 L47.0089112,18.0224933 L47.0089112,38.2606533 C47.0089112,39.7516667 47.3193989,40.8099733 47.9403744,41.41472 C48.566703,42.0142533 49.6587633,42.32184 51.259381,42.32184" id="Fill-44"></path><path d="M67.7259365,7.11359333 C66.9871899,7.83824667 66.0717865,8.21360667 64.9957859,8.21360667 C63.9197854,8.21360667 63.0097352,7.83824667 62.2870482,7.11359333 C61.5590081,6.39936667 61.2003412,5.49746 61.2003412,4.45479333 C61.2003412,3.39648667 61.5750678,2.51543333 62.3191677,1.79078 C63.0472078,1.0557 63.9733177,0.69598 65.0171989,0.69598 C66.0717865,0.69598 66.9871899,1.0557 67.7259365,1.79078 C68.4700364,2.51543333 68.8608227,3.39648667 68.8608227,4.45479333 C68.8608227,5.49746 68.4700364,6.39936667 67.7259365,7.11359333 L67.7259365,7.11359333 Z M62.1371576,46.8027 L67.8008819,46.8027 L67.8008819,13.5416333 L62.1371576,13.5416333 L62.1371576,46.8027 Z" id="Fill-46"></path><path d="M79.5769316,42.6210853 C76.439935,39.4670187 74.8714367,35.327632 74.8714367,30.2029253 C74.8714367,25.0730053 76.5255867,20.923192 79.8178272,17.7534853 C83.0779482,14.588992 87.1838807,12.9989253 92.1195647,12.9989253 C97.0391891,12.9989253 101.166534,14.588992 104.437362,17.7534853 C107.708189,20.923192 109.351633,25.0625787 109.351633,30.1768587 C109.351633,35.280712 107.649304,39.4148853 104.223233,42.5950187 C100.797161,45.7647253 96.6109302,47.3495787 91.6805993,47.3495787 C86.760975,47.3495787 82.7032217,45.7699387 79.5769316,42.6210853 M91.6805993,42.803552 C94.8818348,42.803552 97.6441048,41.6826853 99.9995289,39.440952 C102.33354,37.204432 103.505899,34.1024987 103.505899,30.1403653 C103.505899,26.1886587 102.376366,23.097152 100.14942,20.8658453 C97.9171199,18.6606053 95.1923225,17.5397387 91.9643209,17.5397387 C88.7416725,17.5397387 86.059701,18.6606053 83.9076999,20.8658453 C81.7449924,23.097152 80.674345,26.193872 80.674345,30.1768587 C80.674345,34.1494187 81.7128729,37.251352 83.7899287,39.4670187 C85.8509248,41.693112 88.4954236,42.803552 91.6805993,42.803552" id="Fill-48"></path><path d="M122.100366,13.539548 L122.100366,18.935348 C124.429024,14.9732147 128.14417,12.9973613 133.229745,12.9973613 C137.019836,12.9973613 140.172892,14.227708 142.69962,16.667548 C145.231701,19.1126013 146.489711,22.5898947 146.489711,27.115068 L146.489711,46.8006147 L140.900933,46.8006147 L140.900933,28.022188 C140.900933,24.675228 140.076534,22.125908 138.411678,20.389868 C136.746821,18.6590413 134.450283,17.7884147 131.527415,17.7884147 C128.604548,17.7884147 126.302657,18.6590413 124.616387,20.389868 C122.935471,22.125908 122.100366,24.675228 122.100366,28.022188 L122.100366,46.8006147 L116.447348,46.8006147 L116.447348,13.539548 L122.100366,13.539548 Z" id="Fill-50"></path><path d="M154.278671,22.934496 C154.278671,20.1453627 155.467089,17.7941493 157.854633,15.880856 C160.242176,13.9519227 163.320287,12.9978827 167.115732,12.9978827 C170.921883,12.9978827 173.882223,13.9362827 176.055637,15.8130827 C178.202285,17.7003093 179.390703,20.2652693 179.604833,23.544456 L173.759098,23.544456 C173.668093,21.6780827 173.020352,20.1870693 171.799814,19.0662027 C170.622102,17.9244827 168.946539,17.3562293 166.805244,17.3562293 C164.663949,17.3562293 162.99374,17.851496 161.757142,18.8420293 C160.531251,19.837776 159.937042,21.1098293 159.937042,22.6581893 C159.937042,24.216976 160.616903,25.4160427 162.030157,26.2606027 C163.411292,27.1155893 165.081502,27.7307627 167.062199,28.1061227 C169.026837,28.502336 170.986122,28.940256 172.966819,29.4511627 C174.931457,29.9464293 176.612373,30.9004693 178.020275,32.287216 C179.396056,33.6896027 180.081271,35.6706693 180.081271,38.2356293 C180.081271,40.795376 178.892852,42.9589093 176.510662,44.705376 C174.128472,46.472696 171.028948,47.348536 167.206737,47.348536 C163.405939,47.348536 160.343888,46.425776 158.020583,44.564616 C155.745457,42.7086693 154.487447,40.1332827 154.278671,36.8645227 L160.113698,36.8645227 C160.19935,38.730896 160.884564,40.2114827 162.142575,41.3219227 C163.411292,42.4427893 165.156447,42.9797627 167.372687,42.9797627 C169.588927,42.9797627 171.334082,42.5209893 172.592093,41.5982293 C173.86081,40.670256 174.492492,39.4868293 174.492492,38.058376 C174.492492,36.6142827 173.989287,35.4725627 173.004292,34.6227893 C172.013943,33.7834427 170.755933,33.1891227 169.267733,32.8711093 C167.77418,32.5426693 166.13609,32.1673093 164.380228,31.7137493 C162.602953,31.2758293 160.991629,30.801416 159.508783,30.2957227 C158.004523,29.784816 156.762572,28.908976 155.761517,27.657776 C154.765815,26.406576 154.278671,24.8321493 154.278671,22.934496" id="Fill-52"></path></g></g></g></g></svg> 